<?xml version="1.0" encoding="utf-8"?>
<!-- Generator: Adobe Illustrator 16.0.0, SVG Export Plug-In . SVG Version: 6.00 Build 0)  -->
<!DOCTYPE svg PUBLIC "-//W3C//DTD SVG 1.1//EN" "http://www.w3.org/Graphics/SVG/1.1/DTD/svg11.dtd">
<svg version="1.1" id="Layer_1" xmlns="http://www.w3.org/2000/svg" xmlns:xlink="http://www.w3.org/1999/xlink" x="0px" y="0px"
	 width="1214px" height="211px" viewBox="76 99.5 1214 211" enable-background="new 76 99.5 1214 211" xml:space="preserve">
<g id="_x23_000000ff">
</g>
<g id="_x23_fce100ff">
	<path fill="#FCE100" d="M182.3,106.3c6.79-1.97,14.89-0.78,19.98,4.41c5.17,5.3,6.04,13.18,5.979,20.24
		c-0.03,30.03-0.01,60.05-0.01,90.08c-0.05,12.36,0.3,24.819-1.68,37.06c-1.79,8.471-4.44,16.91-9.29,24.16
		c-8.84,13.74-24.44,21.891-40.36,24.07c-13.97,1.89-28.51,1.239-41.95-3.25c-8.06-2.74-15.29-7.86-20.689-14.42
		c-6.28-7.26-9.49-16.59-11.89-25.73c-1.54-8-3.34-16.52-0.73-24.49c3.62-11.02,19.58-14.689,28.02-7.109
		c6.38,7.01,6.57,17.06,9.33,25.68c1.62,6.92,4.96,13.891,11.18,17.77c6.28,3.521,14.04,3.86,20.89,2
		c6.02-1.64,10.82-6.33,13.45-11.879c3.67-7.721,4.49-16.41,4.67-24.841c0.05-37.37-0.06-74.74,0.05-112.1
		C169.18,119.15,173.01,108.87,182.3,106.3z"/>
	<path fill="#FCE100" d="M705.17,108.18c7.17-4.54,17.93-3.62,23.55,3.02c3.561,4.4,4.511,10.26,4.57,15.76
		c0,17.61,0.01,35.22,0,52.83c4.229-4.29,8.76-8.38,13.87-11.62c12.95-7.88,29.01-9.69,43.72-6.74
		c12.47,2.47,24.05,10.51,29.49,22.17c6.08,13.6,4.71,28.86,4.94,43.37c-0.011,19.351,0,38.71,0,58.061
		c-0.061,5.78-1.07,11.95-4.851,16.54c-5.54,6.54-15.96,7.449-23.11,3.15c-6.13-4-7.63-11.921-7.77-18.721
		c-0.061-17.02-0.01-34.03-0.02-51.05c-0.101-10.851,0.609-21.92-2.261-32.511c-1.51-5.859-4.45-11.979-10.229-14.649
		c-11.34-5.18-25.76-2.06-33.99,7.31c-4.19,4.65-7.29,10.44-8.21,16.669c-1.89,11.311-1.53,22.83-1.58,34.25
		c-0.04,13.641,0.09,27.28-0.06,40.92c-0.211,7.121-2.771,15.24-9.65,18.541c-6.53,2.979-15.19,2.579-20.6-2.471
		c-4.65-4.68-5.511-11.67-5.57-17.96c0.01-52.69-0.01-105.37,0.01-158.06C697.46,120.13,699.02,112.21,705.17,108.18z"/>
	<path fill="#FCE100" d="M1002.57,111.52c5.319-6.99,16.109-7.8,23.38-3.54c6.16,3.65,8.189,11.29,8.29,18.02
		c0.05,17.93,0.01,35.86,0.01,53.79c8.7-9.29,19.89-16.73,32.68-18.64c15.391-2.65,32.771-0.62,44.91,9.99
		c7.42,6.23,11.75,15.42,13.21,24.89c1.75,11.92,1.101,23.989,1.23,35.989c0,17.32-0.021,34.65,0.01,51.971
		c0,5.38-0.62,11.029-3.51,15.699c-6.04,10.181-23.65,10.41-29.28-0.27c-3.5-6.561-2.95-14.24-2.98-21.43
		c0-18.68,0.011-37.36,0-56.04c-0.119-8.8-0.869-17.851-4.58-25.94c-1.979-4.39-5.85-7.83-10.43-9.27
		c-7.74-2.4-16.52-1.8-23.63,2.19c-7.22,3.96-12.6,10.929-15.12,18.72c-2.07,7.92-2.25,16.16-2.47,24.289
		c-0.07,17.701,0,35.4-0.03,53.091c-0.07,5.989-1.14,12.42-5.21,17.06c-5.52,6-15.229,6.66-22.229,3.061
		c-6.67-3.73-8.34-12.051-8.431-19.08c-0.04-51.36,0-102.71-0.02-154.07C998.29,125.04,998.24,117.38,1002.57,111.52z"/>
	<path fill="#FCE100" d="M396.03,114.98c4.979-7.67,16.84-7.73,23.739-2.75c4.131,3.27,5.49,8.8,5.61,13.84
		c0.14,14.08-0.09,28.16,0.12,42.24c9.77-2.19,19.43-4.94,29.34-6.43c16.3-2.07,33.7,0.5,47.61,9.66
		c14.729,9.66,24.68,25.36,29.93,41.94c5.19,15.649,4.351,33.229-2.64,48.199c-6.71,14.28-17.28,26.961-30.71,35.36
		c-13.13,8.229-29.36,11.01-44.54,8.14c-19.37-3.529-36.86-13.63-52.42-25.34c-20.88-15.71-35-38.22-53.86-56.029
		c-11.27-10.621-23.33-20.67-37.22-27.701c-7.34-3.79-15.99-5.05-24.06-3.15c-10.33,2.31-19.39,9.28-24.66,18.41
		c-5.33,9.08-6.88,20.29-4.24,30.47c2.97,11.9,11.43,22.391,22.7,27.36c8.4,4,18.45,4.13,27,0.52
		c12.48-5.12,21.62-16.85,24.72-29.84c1.31-5.94,1.91-11.989,2.69-18.01c8.18,13.479,21.22,22.979,30.55,35.54
		c6.35,8.48,9.11,19.72,6.66,30.09c-1.59,5.01-4.23,10.18-8.91,12.93c-4.69,1.94-10.04,0.53-14.49-1.42
		c-3.68-1.539-6.01-5.35-10.02-6.199c-3.63-0.641-6.9,1.469-10.02,2.979c-14.8,7.79-32.25,11.21-48.75,7.61
		c-27.23-5.851-49.6-29.01-55.02-56.26c-3.26-15.621-1.3-32.271,5.4-46.75c8.36-18.021,24.6-32.19,43.61-38
		c23.69-7,50.6-1.62,70.2,13.32c11.46,9.11,21.17,20.17,31.21,30.771c13.02,13.64,26.29,27.039,39.69,40.319
		c6.53,5.8,12.9,11.89,20.32,16.57c9.75,5.819,21.22,8.2,32.47,8.46c9.34,0.18,18.47-4.4,24.17-11.75
		c10.94-13.811,12.83-35.07,2.42-49.721c-7.56-11.109-21.2-18.529-34.78-16.779c-17.59,2.27-32.33,17.811-33.939,35.42
		c-0.37,5.439,0.13,10.88,0.46,16.3c-4.79-2.979-8.74-7.05-12.771-10.95c-9.229-9.31-16.899-20.609-20.04-33.479
		c-2.11-8.47-2.18-17.34-0.9-25.94c2.24-13.9,0.82-27.99,0.72-41.97C393.28,126.93,392.74,120.36,396.03,114.98z"/>
	<path fill="#FCE100" d="M609.561,160.77c18.8-2.35,38.8,1.18,54.539,12.1c7.761,5.54,14.83,12.91,17.631,22.24
		c1.609,4.99,0.899,10.92-2.801,14.82c-5.38,6.051-16.449,7.881-22.16,1.36c-5.479-5.92-9.14-13.4-15.489-18.55
		c-8-7.37-19.99-8.79-30.22-6.25c-11.53,2.99-19.801,13.25-23.23,24.29c-3.68,11.97-3.94,24.899-1.391,37.13
		c2.03,8.59,6.061,17.09,13.021,22.76c9.11,7.59,22.29,8.92,33.31,5.27c8.881-2.959,15.33-10.449,19.83-18.35
		c2.5-4.279,5.24-8.779,9.59-11.4c5.211-2.959,12.351-2.189,16.671,2.041c4.279,3.92,6.489,10.029,5.189,15.76
		c-2.25,11.96-11.08,21.6-21.09,27.949c-17.21,10.58-38.37,12.791-58.08,10.15c-16.19-2.14-31.96-9.98-41.97-23.12
		c-11.971-15.069-15.4-35.239-13.79-54.02c1.24-16.46,7.13-33.1,18.89-45C578.811,168.58,594.12,162.3,609.561,160.77z"/>
	<path fill="#FCE100" d="M868.939,169.82c8.871-5.26,19.051-7.88,29.24-9.01c11.521-1.17,23.19-0.91,34.641,0.74
		c9.79,1.47,19.869,4.4,27.319,11.23c4.181,3.81,7.37,8.689,9.21,14.04c3.301,9.35,4.181,19.35,4.24,29.21
		c0,13.659-0.05,27.329-0.26,41c-0.08,8.909,2.13,17.63,4.73,26.09c1.02,4.45,3.05,9.25,1.119,13.75
		c-2.83,6.569-10.1,10.979-17.24,10.38c-5.079-0.61-9.029-4.32-12.14-8.1c-3.31-4.301-6.41-8.771-9.069-13.5
		c-11.091,8.97-23.391,17.41-37.641,20.189c-12.74,2.49-26.529,2.18-38.38-3.561c-8.399-4.1-15.57-11.01-19.229-19.68
		c-5.28-11.97-4.061-26.789,3.83-37.34c6.76-9.21,17.619-14.49,28.59-16.77c20.239-4.23,40.64-7.83,60.479-13.721
		c-0.53-7.89-1.34-16.39-6.21-22.939c-4.439-5.16-11.76-6.07-18.15-6.45c-9.479-0.19-20.13,0.47-27.42,7.32
		c-6.72,5.6-9.449,14.35-15.26,20.659c-6.979,3.69-17.029,1.431-20.9-5.75c-2.789-5.079-1.779-11.25-0.069-16.52
		C853.45,181.88,860.54,174.48,868.939,169.82 M896.87,245.57c-5.46,1.14-10.76,3.619-14.76,7.55c-5.65,6-4.761,16.22,0.819,21.979
		c5.46,6.131,14.301,7.66,22.131,6.76c11.379-1.06,23.319-6.439,29.06-16.789c4.39-9.04,4.21-19.41,4.24-29.23
		C924.82,240.24,910.71,242.35,896.87,245.57z"/>
	<path fill="#FCE100" d="M1202.47,160.81c19.74-2.49,41.04,1.31,56.92,13.86c13.841,10.57,22.271,27.08,24.79,44.13
		c2.95,19.71,0.431,40.96-10.33,58.06c-8.819,14.23-23.63,24.41-39.89,28.15c-12.12,2.83-24.84,3.04-37.06,0.73
		c-13.431-2.53-25.98-9.381-35.431-19.24c-9.18-9.76-15.109-22.33-17.46-35.48c-2.6-14.539-2.029-29.739,2.26-43.91
		c4.17-13.689,12.57-26.279,24.431-34.439C1180.07,166.1,1191.15,162.23,1202.47,160.81 M1204.4,186.63
		c-6.761,1.9-12.74,6.26-16.721,12.03c-7.29,10.55-9.27,23.779-9.21,36.35c0.24,12.96,2.86,26.801,11.66,36.82
		c11.12,13.02,33.28,13.7,45.521,1.91c6.239-5.85,9.97-13.92,11.83-22.18c2.479-11.891,2.449-24.301-0.11-36.181
		c-2.03-8.84-6.29-17.48-13.46-23.26C1225.82,185.45,1214.34,183.86,1204.4,186.63z"/>
</g>
</svg>
